<?xml version="1.0" encoding="utf-8"?>
<!-- Svg Vector Icons : http://www.onlinewebfonts.com/icon -->
<!DOCTYPE svg PUBLIC "-//W3C//DTD SVG 1.1//EN" "http://www.w3.org/Graphics/SVG/1.1/DTD/svg11.dtd">
<svg style="fill: #4d4c4b" version="1.1" xmlns="http://www.w3.org/2000/svg" xmlns:xlink="http://www.w3.org/1999/xlink" x="0px" y="0px" viewBox="0 0 1000 1000" enable-background="new 0 0 1000 1000" xml:space="preserve">
<metadata> Svg Vector Icons : http://www.onlinewebfonts.com/icon </metadata>
<g><path d="M500,10C229.4,10,10,229.4,10,500c0,270.6,219.4,490,490,490c270.6,0,490-219.4,490-490C990,229.4,770.6,10,500,10L500,10z M793.8,793.8c-38.2,38.2-82.6,68.1-132.1,89.1c-51.2,21.6-105.6,32.6-161.7,32.6s-110.5-11-161.7-32.6c-49.5-20.9-93.9-50.9-132.1-89.1c-38.2-38.2-68.1-82.6-89.1-132.1C95.5,610.5,84.5,556.1,84.5,500c0-56.1,11-110.5,32.6-161.7c20.9-49.5,50.9-93.9,89.1-132.1c38.2-38.2,82.6-68.1,132.1-89.1C389.5,95.5,443.9,84.5,500,84.5s110.5,11,161.7,32.6c49.5,20.9,93.9,50.9,132.1,89.1c38.2,38.2,68.2,82.6,89.1,132.1c21.6,51.2,32.6,105.6,32.6,161.7c0,56.1-11,110.5-32.6,161.7C861.9,711.2,832,755.6,793.8,793.8L793.8,793.8z M648.5,174c-74.7-34-159.5-41.3-238.8-20.6c-71.5,18.7-137,60.2-184.5,116.9c-49.8,59.5-79.2,134.9-82.9,212.4c-3.8,79.1,19.1,158.2,64.4,222.8l60-38l-28.3-48.2l-28.9,16.9c-22-47.1-32.5-99.4-30-151.7c2-41.5,12.2-82.3,29.6-119.8l30.2,16.8l27.1-48.9l-29.5-16.3c5.3-7.6,10.9-14.9,16.8-22.1c35.7-42.7,82.9-75.8,135.1-95.2l24.5,238.4c-14.3,18.7-22.8,42-22.8,67.3c0,61.3,49.6,110.9,110.9,110.9c61.2,0,110.8-49.6,110.8-110.9c0-52.8-36.9-96.9-86.4-108.1L393.8,197.2c8.3-2.9,16.7-5.5,25.2-7.7c17.7-4.6,35.7-7.7,53.9-9.2l0.3,35.9l55.9-0.5l-0.3-35.2c35.8,3.2,71.1,12.4,104.2,27.5c51.6,23.5,96.9,61.3,129.7,107.8l-30.4,17.8l28.3,48.2l30.2-17.7c25.8,55.3,35.4,117.7,27.2,178.7c-4.4,33-14.2,65.4-28.7,95.6L759.6,622l-27.1,48.9l60,35.5c33.2-47.2,54.7-102,62.3-158.6c10.6-79.1-5.7-160.4-45.9-228.9C771.9,255.7,714.9,204.2,648.5,174L648.5,174z M501.5,448.9c30.8,0,55.9,25,55.9,55.8s-25.1,55.9-55.9,55.9c-30.8,0-55.9-25-55.9-55.9S470.6,448.9,501.5,448.9z"/></g>
</svg>